<svg id="go_create" xmlns="http://www.w3.org/2000/svg" viewBox="0 0 889.63 728.77">
<defs><style>.cls-1{fill:#445268;}</style></defs>
<title>go_create</title>
<path id="twenty-two" class="cls-1" d="M272.21,497.9c0,8.74-7.37,15.83-16.47,15.83s-16.47-7.09-16.47-15.83a15.68,15.68,0,0,1,7.79-13.45V419.56a15.68,15.68,0,0,1-7.79-13.45c0-8.75,7.38-15.83,16.47-15.83s16.47,7.08,16.47,15.83a15.81,15.81,0,0,1-9.32,14.27v63.25A15.81,15.81,0,0,1,272.21,497.9Z" transform="translate(-71.64 -165.76)"/>
<path id="twenty-one" class="cls-1" d="M195.08,628.56c0,8.74-6.8,15.83-15.2,15.83s-15.2-7.09-15.2-15.83a16.38,16.38,0,0,1,.72-4.84l-34-53V380.54a16,16,0,0,1-6.77-13.18c0-8.74,6.8-15.83,15.2-15.83s15.2,7.09,15.2,15.83a16,16,0,0,1-6.78,13.18V566.71l32.16,46C188.56,613,195.08,620,195.08,628.56Z" transform="translate(-71.64 -165.76)"/>
<path id="twenty" class="cls-1" d="M104.57,554.86c0,8.74-7.37,15.83-16.46,15.83s-16.47-7.09-16.47-15.83a15.68,15.68,0,0,1,8.17-13.67V432.9a15.7,15.7,0,0,1-8.17-13.67c0-8.74,7.37-15.83,16.47-15.83s16.46,7.09,16.46,15.83a15.76,15.76,0,0,1-8.42,13.82V541A15.75,15.75,0,0,1,104.57,554.86Z" transform="translate(-71.64 -165.76)"/>
<path id="nineteen" class="cls-1" d="M529,514.66A17.07,17.07,0,0,1,519.85,529L512.94,632.5l-53.47,59.31H322.26a15.05,15.05,0,0,1-12.12,6.25c-8.46,0-15.32-7.2-15.32-16.08s6.86-16.09,15.32-16.09a15.3,15.3,0,0,1,14,9.58h129l44.15-49,6-99.11a17.17,17.17,0,0,1-6.42-14.54c.54-9.33,8.17-16.48,17-16S529.54,505.33,529,514.66Z" transform="translate(-71.64 -165.76)"/>
<path id="eighteen" class="cls-1" d="M349.5,242.75c0,9.24-7,16.73-15.63,16.73a14.38,14.38,0,0,1-3.49-.42L259.3,343.72l-71.37,22.42V487.72l45.57,77.52a14.23,14.23,0,0,1,3.21-.37c8.88,0,16.08,8.39,16.08,18.74s-7.2,18.73-16.08,18.73-16.09-8.39-16.09-18.73a21.3,21.3,0,0,1,.7-5.47l-49-85V351.53l80.11-23.39,66.13-82.09a17.1,17.1,0,0,1-.31-3.3c0-9.23,7-16.72,15.64-16.72S349.5,233.52,349.5,242.75Z" transform="translate(-71.64 -165.76)"/>
<path id="seventeen" class="cls-1" d="M553.43,793.94V894.53H537.09v-92.7l-55.9-66.62H379.86a15.1,15.1,0,0,1-12.74,7.16c-8.46,0-15.32-7.2-15.32-16.09s6.86-16.08,15.32-16.08a15,15,0,0,1,12,6.12H486Z" transform="translate(-71.64 -165.76)"/>
<path id="sixteen" class="cls-1" d="M824.06,786.72a18.57,18.57,0,0,1-33.71,10.77H651.62L623.9,818.61a22.2,22.2,0,0,1,.59,5.07c0,11.21-8.41,20.3-18.8,20.3s-18.79-9.09-18.79-20.3,8.41-20.3,18.79-20.3a17.55,17.55,0,0,1,8.49,2.19l31.93-24.42H787.77a18.57,18.57,0,0,1,36.29,5.57Z" transform="translate(-71.64 -165.76)"/>
<path id="fifteen" class="cls-1" d="M855.21,699.6c0,9.23-7,16.72-15.57,16.72a14.82,14.82,0,0,1-9.63-3.58H636.66l-19.4-29.86V445.43L585.6,407.89V267.59l32.73-40.29a18.56,18.56,0,0,1-1.32-6.91c0-9.71,7.34-17.58,16.39-17.58s16.39,7.87,16.39,17.58S642.45,238,633.4,238H633l-32.63,39V396.4l32,43.15V677.77l13.52,18.63H824.35c1.39-7.71,7.71-13.52,15.29-13.52C848.24,682.88,855.21,690.36,855.21,699.6Z" transform="translate(-71.64 -165.76)"/>
<g id="fourteen"><path class="cls-1" d="M479.26,579.8c0,9-6.63,16.31-15,16.89l-41,52.22H244.46a15.14,15.14,0,0,1-12.74,7.15c-8.46,0-15.32-7.2-15.32-16.08s6.86-16.09,15.32-16.09a15.23,15.23,0,0,1,13.56,8.61H415.73l34.76-42.3a17.36,17.36,0,0,1-3.4-10.4c0-9.35,7.2-16.93,16.08-16.93S479.26,570.45,479.26,579.8Z" transform="translate(-71.64 -165.76)"/></g>
<path id="thirteen" class="cls-1" d="M479.26,403.4a17,17,0,0,1-17,17,16.78,16.78,0,0,1-7-1.5l-47.83,50.6a17,17,0,1,1-11.4-13.73L445.38,405c-.05-.53-.08-1.07-.08-1.62a17,17,0,0,1,34,0Z" transform="translate(-71.64 -165.76)"/>
<path id="twelve" class="cls-1" d="M481.09,186.68c0,11.54-8.39,20.91-18.73,20.91A17.81,17.81,0,0,1,448.68,201L411.93,212.4v43.42l.73.41L316.49,363.81V552.4H299.64v-200l.81-.87,95.19-101.85V200l48.05-14.79c.67-10.87,8.77-19.46,18.67-19.46C472.7,165.76,481.09,175.13,481.09,186.68Z" transform="translate(-71.64 -165.76)"/>
<path id="eleven" class="cls-1" d="M301.1,200c0,8.13-5.41,14.89-12.59,16.4l-32.77,49H210.21L187,292.22a17.67,17.67,0,0,1,.91,5.63c0,9.24-7,16.73-15.63,16.73s-15.64-7.49-15.64-16.73,7-16.72,15.64-16.72a14.48,14.48,0,0,1,3.31.38l26.75-33.83h45.5l23.71-40a17.58,17.58,0,0,1-1.74-7.66c0-9.24,7-16.73,15.64-16.73S301.1,190.77,301.1,200Z" transform="translate(-71.64 -165.76)"/>
<path id="ten" class="cls-1" d="M453.4,264.4a17.06,17.06,0,0,1-6.7,13.73v64.69L358.87,420V582.15a17.23,17.23,0,0,1,5.75,13c0,9.34-7.2,16.92-16.08,16.92s-16.09-7.58-16.09-16.92a16.94,16.94,0,0,1,10.08-15.7V411.47l86.12-76.07,1.2.49V278.83a17,17,0,0,1-7.73-14.43c0-9.23,7-16.72,15.64-16.72S453.4,255.17,453.4,264.4Z" transform="translate(-71.64 -165.76)"/>
<path id="nine" class="cls-1" d="M520.68,225.17a17.84,17.84,0,0,1-8.11,15.17V459.47l-87.49,84a18.5,18.5,0,0,1,.39,3.83c0,9.71-7.34,17.58-16.39,17.58s-16.39-7.87-16.39-17.58S400,529.7,409.08,529.7a15.19,15.19,0,0,1,5.06.86L496.74,452V240.78a17.77,17.77,0,0,1-8.85-15.61c0-9.71,7.34-17.58,16.39-17.58S520.68,215.46,520.68,225.17Z" transform="translate(-71.64 -165.76)"/>
<path id="eight" class="cls-1" d="M879.28,743.61a17.33,17.33,0,0,1-32.73,7.94H595.81l-46.47-38.81V265.05a17.84,17.84,0,0,1-7.91-15c0-9.71,7.34-17.59,16.4-17.59s16.39,7.88,16.39,17.59a17.89,17.89,0,0,1-7.52,14.78V704.57l35.49,30.64h244.6a17.33,17.33,0,0,1,32.49,8.4Z" transform="translate(-71.64 -165.76)"/>
<path id="seven" class="cls-1" d="M692.31,384.42c0,9.71-7.34,17.58-16.39,17.58s-16.39-7.87-16.39-17.58a17.67,17.67,0,0,1,9.64-16V315.15l-16.17-17a15,15,0,0,1-4.21.59c-9,0-16.39-7.87-16.39-17.58s7.34-17.59,16.39-17.59,16.39,7.88,16.39,17.59a18.27,18.27,0,0,1-.47,4.15l20.71,20.48V370.1A18,18,0,0,1,692.31,384.42Z" transform="translate(-71.64 -165.76)"/>
<path id="six" class="cls-1" d="M796.39,288.17A17.89,17.89,0,0,1,788.83,303V440.88l-47,53a18.64,18.64,0,0,1,.44,4.06c0,9.71-7.34,17.58-16.39,17.58s-16.39-7.87-16.39-17.58,7.33-17.58,16.39-17.58a15.41,15.41,0,0,1,5.48,1L773,434.45V304.08a17.72,17.72,0,0,1-9.39-15.91c0-9.71,7.34-17.58,16.39-17.58S796.39,278.46,796.39,288.17Z" transform="translate(-71.64 -165.76)"/>
<path id="five" class="cls-1" d="M884.73,473.54c0,9.71-7.33,17.58-16.39,17.58S852,483.25,852,473.54a18.45,18.45,0,0,1,2.48-9.3L821,425.77v-85a17.8,17.8,0,0,1-8.37-15.33c0-9.71,7.34-17.58,16.39-17.58s16.4,7.87,16.4,17.58a17.8,17.8,0,0,1-8.59,15.47v77L869,456C877.74,456.32,884.73,464.06,884.73,473.54Z" transform="translate(-71.64 -165.76)"/>
<path id="four" class="cls-1" d="M961.27,504.12c0,9.71-7.34,17.58-16.39,17.58s-16.39-7.87-16.39-17.58a17.85,17.85,0,0,1,8.42-15.38v-26l-42.82-32.53a15.44,15.44,0,0,1-7.85,2.15c-9,0-16.39-7.87-16.39-17.58s7.34-17.58,16.39-17.58,16.39,7.87,16.39,17.58c0,.53,0,1.05-.06,1.57l50.69,38.25V489A17.84,17.84,0,0,1,961.27,504.12Z" transform="translate(-71.64 -165.76)"/>
<path id="three" class="cls-1" d="M902.63,592.94c0,9.71-7.34,17.58-16.39,17.58a16.13,16.13,0,0,1-13.85-8.18H733.17l-54.64-66.28V442.62l.34-.44,35.92-45.78V265a18.11,18.11,0,0,1-5.3-12.94c0-9.71,7.33-17.59,16.39-17.59s16.39,7.88,16.39,17.59a17.51,17.51,0,0,1-11.14,16.65V399.72l-37.25,48.34.9,80.1,44.51,55.45H872.35a16.14,16.14,0,0,1,13.89-8.25C895.29,575.36,902.63,583.23,902.63,592.94Z" transform="translate(-71.64 -165.76)"/>
<path id="two" class="cls-1" d="M930.71,631.75c0,9.71-7.33,17.58-16.39,17.58a14.88,14.88,0,0,1-2.22-.16l-29.82,17.11H714.79L686,637.5h-.45c-9.06,0-16.39-7.87-16.39-17.58s7.33-17.59,16.39-17.59S702,610.21,702,619.93a18.48,18.48,0,0,1-1.88,8.17l21,21.23H877.68l21-12.36a18.65,18.65,0,0,1-.74-5.22c0-9.71,7.34-17.58,16.39-17.58S930.71,622,930.71,631.75Z" transform="translate(-71.64 -165.76)"/>
<polygon id="one" class="cls-1" points="869.1 415.5 854.93 422.77 829.09 376.43 674.3 376.43 674.3 358.56 838.21 358.56 869.1 415.5"/></svg>