<svg xmlns="http://www.w3.org/2000/svg" viewBox="0 0 317.62 228.89"><defs><style>.cls-1{fill:#2a2d7c;}</style></defs><title>Asset 7</title><g id="Layer_2" data-name="Layer 2"><g id="go_create"><g id="Layer_2-2" data-name="Layer 2"><path id="twenty-two" class="cls-1" d="M71.61,104.32c0,2.74-2.63,5-5.88,5s-5.88-2.23-5.88-5a4.84,4.84,0,0,1,2.78-4.22V79.71a4.84,4.84,0,0,1-2.78-4.22c0-2.75,2.63-5,5.88-5s5.88,2.22,5.88,5A5,5,0,0,1,68.28,80V99.84A5,5,0,0,1,71.61,104.32Z"/><path id="twenty-one" class="cls-1" d="M44.07,145.36a5.22,5.22,0,0,1-5.43,5,5.21,5.21,0,0,1-5.42-5,4.49,4.49,0,0,1,.26-1.52L21.33,127.18V67.46a4.89,4.89,0,0,1-2.42-4.14,5.21,5.21,0,0,1,5.43-5,5.22,5.22,0,0,1,5.43,5,4.85,4.85,0,0,1-2.43,4.14v58.47l11.49,14.46A5.2,5.2,0,0,1,44.07,145.36Z"/><path id="twenty" class="cls-1" d="M11.76,122.21c0,2.74-2.63,5-5.88,5S0,125,0,122.21a4.86,4.86,0,0,1,2.92-4.29v-34A4.88,4.88,0,0,1,0,79.61c0-2.74,2.63-5,5.88-5s5.88,2.23,5.88,5a4.92,4.92,0,0,1-3,4.34v33.92A4.91,4.91,0,0,1,11.76,122.21Z"/><path id="nineteen" class="cls-1" d="M163.29,109.58a5.37,5.37,0,0,1-3.27,4.5l-2.46,32.52-19.09,18.62h-49a5.62,5.62,0,0,1-4.33,2,5.07,5.07,0,1,1,0-10.11,5.51,5.51,0,0,1,5,3h46L152,144.69l2.16-31.12a5.15,5.15,0,0,1-2.3-4.57,5.66,5.66,0,0,1,6.09-5A5.45,5.45,0,0,1,163.29,109.58Z"/><path id="eighteen" class="cls-1" d="M99.2,24.18a5.43,5.43,0,0,1-5.58,5.26,5.68,5.68,0,0,1-1.24-.14L67,55.89l-25.48,7v38.18l16.27,24.35a5.38,5.38,0,0,1,1.14-.12,5.89,5.89,0,1,1-5.74,5.89,6.06,6.06,0,0,1,.25-1.72l-17.5-26.69V58.35L64.54,51,88.15,25.22a5.1,5.1,0,0,1-.11-1,5.59,5.59,0,0,1,11.16,0Z"/><path id="seventeen" class="cls-1" d="M172,197.3v31.59h-5.83V199.78l-20-20.93H110a5.56,5.56,0,0,1-4.54,2.25,5.07,5.07,0,1,1,0-10.1,5.63,5.63,0,0,1,4.29,1.92H148Z"/><path id="sixteen" class="cls-1" d="M268.64,195c0,3.23-3,5.84-6.63,5.84a6.94,6.94,0,0,1-5.41-2.45H207.07l-9.9,6.63a6,6,0,0,1,.21,1.59,6.72,6.72,0,1,1-6.71-6.37,6.94,6.94,0,0,1,3,.68l11.4-7.67h50.58A6.6,6.6,0,0,1,262,189.2C265.67,189.2,268.64,191.81,268.64,195Z"/><path id="fifteen" class="cls-1" d="M279.76,167.67a5.41,5.41,0,0,1-5.56,5.25,5.78,5.78,0,0,1-3.44-1.12h-69l-6.93-9.38V87.84L183.5,76.05V32l11.68-12.65a5.29,5.29,0,0,1-.47-2.17,5.87,5.87,0,0,1,11.71,0,5.69,5.69,0,0,1-5.86,5.52h-.13L188.78,34.92V72.44L200.21,86v74.82l4.82,5.86h63.71a5.48,5.48,0,0,1,5.46-4.25A5.41,5.41,0,0,1,279.76,167.67Z"/><g id="fourteen"><path class="cls-1" d="M145.53,130a5.5,5.5,0,0,1-5.36,5.31l-14.65,16.4H61.7A5.6,5.6,0,0,1,57.15,154a5.07,5.07,0,1,1,0-10.1A5.52,5.52,0,0,1,62,146.6h60.86l12.41-13.29a5,5,0,0,1-1.21-3.27,5.76,5.76,0,0,1,11.48,0Z"/></g><path id="thirteen" class="cls-1" d="M145.53,74.64c0,2.94-2.71,5.33-6.06,5.33A6.57,6.57,0,0,1,137,79.5L119.9,95.39a4.74,4.74,0,0,1,.06.75c0,2.94-2.71,5.33-6.06,5.33s-6.06-2.39-6.06-5.33,2.71-5.34,6.06-5.34a6.82,6.82,0,0,1,1.93.28l17.61-15.93a4.36,4.36,0,0,1,0-.51c0-3,2.71-5.33,6.06-5.33S145.53,71.69,145.53,74.64Z"/><path id="twelve" class="cls-1" d="M146.19,6.57a6.63,6.63,0,0,1-6.69,6.57,6.72,6.72,0,0,1-4.89-2.09l-13.12,3.6V28.29l.26.13L87.42,62.2v59.24h-6V58.62l.29-.27,34-32V10.76l17.15-4.65a6.69,6.69,0,0,1,13.36.46Z"/><path id="eleven" class="cls-1" d="M81.92,10.76a5.35,5.35,0,0,1-4.49,5.15L65.73,31.3H49.47l-8.28,8.42a5,5,0,0,1,.33,1.77,5.6,5.6,0,1,1-5.58-5.25,5.69,5.69,0,0,1,1.18.12l9.55-10.63H62.92l8.46-12.57a4.93,4.93,0,0,1-.62-2.4,5.59,5.59,0,0,1,11.16,0Z"/><path id="ten" class="cls-1" d="M136.3,31a5.17,5.17,0,0,1-2.39,4.31V55.61L102.55,79.87v50.91a5.13,5.13,0,0,1,2,4.07,5.76,5.76,0,0,1-11.48,0,5.34,5.34,0,0,1,3.6-4.93V77.17l30.74-23.89.43.15V35.51A5.2,5.2,0,0,1,125.13,31a5.6,5.6,0,0,1,11.17,0Z"/><path id="nine" class="cls-1" d="M160.32,18.66a5.44,5.44,0,0,1-2.9,4.76V92.25l-31.23,26.38a5.32,5.32,0,0,1,.14,1.2,5.87,5.87,0,1,1-5.85-5.52,5.94,5.94,0,0,1,1.8.27l29.49-24.69V23.56a5.51,5.51,0,0,1-3.16-4.9,5.87,5.87,0,0,1,11.71,0Z"/><path id="eight" class="cls-1" d="M288.35,181.49c0,3-2.77,5.45-6.19,5.45a6.31,6.31,0,0,1-5.49-2.95H187.14L170.55,171.8V31.19a5.47,5.47,0,0,1-2.82-4.73,5.87,5.87,0,0,1,11.71,0,5.43,5.43,0,0,1-2.69,4.64V169.23l12.67,9.62h87.33a6.37,6.37,0,0,1,5.41-2.8C285.58,176.05,288.35,178.49,288.35,181.49Z"/><path id="seven" class="cls-1" d="M221.6,68.68a5.87,5.87,0,0,1-11.71,0,5.5,5.5,0,0,1,3.45-5V46.92l-5.78-5.35a6.16,6.16,0,0,1-1.5.19,5.53,5.53,0,1,1,5.85-5.52,5.15,5.15,0,0,1-.17,1.3l7.4,6.43V64.18A5.42,5.42,0,0,1,221.6,68.68Z"/><path id="six" class="cls-1" d="M258.76,38.45a5.46,5.46,0,0,1-2.7,4.65V86.41l-16.78,16.65a5.4,5.4,0,0,1,.15,1.28,5.86,5.86,0,1,1-5.85-5.52,6.29,6.29,0,0,1,2,.31l14.87-14.74V43.44a5.5,5.5,0,0,1-3.36-5,5.87,5.87,0,0,1,11.71,0Z"/><path id="five" class="cls-1" d="M290.3,96.67a5.87,5.87,0,0,1-11.71,0,5.27,5.27,0,0,1,.89-2.92L267.54,81.66V55a5.47,5.47,0,0,1-3-4.81,5.86,5.86,0,0,1,11.7,0A5.48,5.48,0,0,1,273.2,55v24.2l11.47,11.94A5.68,5.68,0,0,1,290.3,96.67Z"/><path id="four" class="cls-1" d="M317.62,106.27a5.86,5.86,0,0,1-11.7,0,5.49,5.49,0,0,1,3-4.83V93.29L293.64,83.07a6.1,6.1,0,0,1-2.8.68,5.53,5.53,0,1,1,5.85-5.52c0,.16,0,.33,0,.49l18.09,12v10.8A5.45,5.45,0,0,1,317.62,106.27Z"/><path id="three" class="cls-1" d="M296.69,134.17a5.69,5.69,0,0,1-5.85,5.52,5.92,5.92,0,0,1-4.95-2.57h-49.7L216.68,116.3V87l.12-.14,12.82-14.38V31.15a5.35,5.35,0,0,1-1.89-4.06,5.86,5.86,0,0,1,11.7,0,5.56,5.56,0,0,1-4,5.23V73.48l-13.3,15.19.32,25.15,15.89,17.42h47.51a5.9,5.9,0,0,1,5-2.59A5.69,5.69,0,0,1,296.69,134.17Z"/><path id="two" class="cls-1" d="M306.71,146.36a5.69,5.69,0,0,1-5.85,5.52,5.16,5.16,0,0,1-.79,0l-10.65,5.37h-59.8l-10.27-9h-.16a5.53,5.53,0,1,1,5.85-5.52,5.2,5.2,0,0,1-.67,2.56l7.51,6.67h55.9l7.49-3.88a5.26,5.26,0,0,1-.26-1.64,5.86,5.86,0,0,1,11.7,0Z"/><polygon id="one" class="cls-1" points="310.29 130.5 305.24 132.78 296.01 118.23 240.75 118.23 240.75 112.62 299.27 112.62 310.29 130.5"/></g></g></g></svg>