<svg xmlns="http://www.w3.org/2000/svg" viewBox="0 0 221.09 115.39"><defs><style>.cls-1,.cls-2{fill:#5a7399;}.cls-2{font-size:37.82px;font-family:TrebuchetMS, Trebuchet MS;}.cls-3,.cls-4,.cls-5{fill:#62a544;}.cls-3{letter-spacing:0em;}.cls-4{letter-spacing:-0.1em;}</style></defs><title>Asset 1</title><g id="Layer_2" data-name="Layer 2"><g id="go_create"><g id="Layer_2-2" data-name="Layer 2"><path id="twenty-two" class="cls-1" d="M83.24,32.67a1.87,1.87,0,0,1-3.68,0,1.52,1.52,0,0,1,.87-1.33V25a1.5,1.5,0,0,1-.87-1.32,1.87,1.87,0,0,1,3.68,0,1.56,1.56,0,0,1-1,1.4v6.22A1.58,1.58,0,0,1,83.24,32.67Z"/><path id="twenty-one" class="cls-1" d="M74.61,45.52a1.7,1.7,0,0,1-3.39,0A1.27,1.27,0,0,1,71.3,45l-3.81-5.21V21.12a1.53,1.53,0,0,1-.75-1.29,1.7,1.7,0,0,1,3.39,0,1.51,1.51,0,0,1-.75,1.29V39.44L73,44A1.63,1.63,0,0,1,74.61,45.52Z"/><path id="twenty" class="cls-1" d="M64.5,38.27a1.87,1.87,0,0,1-3.69,0,1.52,1.52,0,0,1,.92-1.34V26.27a1.52,1.52,0,0,1-.92-1.34,1.87,1.87,0,0,1,3.69,0,1.54,1.54,0,0,1-1,1.36V36.91A1.54,1.54,0,0,1,64.5,38.27Z"/><path id="nineteen" class="cls-1" d="M112,34.32a1.67,1.67,0,0,1-1,1.4l-.78,10.19-6,5.83H88.83a1.76,1.76,0,0,1-1.35.61,1.58,1.58,0,1,1,0-3.16,1.71,1.71,0,0,1,1.56.94h14.42l4.94-4.82.67-9.75a1.61,1.61,0,0,1-.71-1.43,1.77,1.77,0,0,1,1.9-1.57A1.71,1.71,0,0,1,112,34.32Z"/><path id="eighteen" class="cls-1" d="M91.88,7.57a1.7,1.7,0,0,1-1.75,1.65,2.58,2.58,0,0,1-.39,0L81.79,17.5l-8,2.21v12l5.09,7.62a2.2,2.2,0,0,1,.36,0,1.85,1.85,0,1,1-1.8,1.85,1.91,1.91,0,0,1,.08-.54L72.07,32.2V18.27L81,16l7.4-8.07a1.24,1.24,0,0,1,0-.33,1.75,1.75,0,0,1,3.5,0Z"/><path id="seventeen" class="cls-1" d="M114.68,61.78v9.9h-1.83V62.56L106.6,56H95.27a1.75,1.75,0,0,1-1.42.7,1.58,1.58,0,1,1,0-3.16,1.73,1.73,0,0,1,1.34.6h12Z"/><path id="sixteen" class="cls-1" d="M144.94,61.07a2,2,0,0,1-2.08,1.83,2.15,2.15,0,0,1-1.69-.77H125.66l-3.1,2.08a2.12,2.12,0,1,1-2-1.5,2.14,2.14,0,0,1,1,.22l3.57-2.4h15.84a2.06,2.06,0,0,1,2-1.28A2,2,0,0,1,144.94,61.07Z"/><path id="fifteen" class="cls-1" d="M148.42,52.51a1.7,1.7,0,0,1-1.74,1.64,1.81,1.81,0,0,1-1.08-.35H124l-2.17-2.94V27.51l-3.54-3.7V10l3.66-4a1.57,1.57,0,0,1-.15-.68,1.83,1.83,0,0,1,3.66,0,1.78,1.78,0,0,1-1.83,1.73h0l-3.65,3.83V22.68l3.58,4.25V50.36L125,52.19h20a1.72,1.72,0,0,1,1.71-1.33A1.7,1.7,0,0,1,148.42,52.51Z"/><g id="fourteen"><path class="cls-1" d="M106.39,40.72a1.71,1.71,0,0,1-1.68,1.66l-4.59,5.14h-20a1.78,1.78,0,0,1-1.43.7,1.58,1.58,0,1,1,0-3.16,1.73,1.73,0,0,1,1.52.85h19l3.89-4.16a1.6,1.6,0,0,1-.38-1,1.81,1.81,0,0,1,3.6,0Z"/></g><path id="thirteen" class="cls-1" d="M106.39,23.37a1.79,1.79,0,0,1-1.9,1.67,2.21,2.21,0,0,1-.78-.14l-5.35,5a1.94,1.94,0,0,1,0,.24,1.92,1.92,0,1,1-1.9-1.67,2.43,2.43,0,0,1,.61.08l5.51-5a.81.81,0,0,1,0-.16,1.92,1.92,0,0,1,3.8,0Z"/><path id="twelve" class="cls-1" d="M106.59,2.06a2.07,2.07,0,0,1-2.09,2.05A2.1,2.1,0,0,1,103,3.46L98.86,4.59V8.86l.08,0L88.19,19.48V38H86.3V18.36l.1-.09L97,8.25V3.37l5.37-1.46a2.09,2.09,0,0,1,4.18.15Z"/><path id="eleven" class="cls-1" d="M86.47,3.37A1.68,1.68,0,0,1,85.06,5L81.4,9.8H76.31l-2.6,2.64a1.46,1.46,0,0,1,.11.55,1.75,1.75,0,1,1-1.75-1.64,2.22,2.22,0,0,1,.37,0l3-3.32h5.09l2.65-3.94a1.48,1.48,0,0,1-.2-.75,1.75,1.75,0,0,1,3.5,0Z"/><path id="ten" class="cls-1" d="M103.5,9.7a1.61,1.61,0,0,1-.75,1.35v6.36L92.93,25V41a1.64,1.64,0,0,1,.64,1.28,1.81,1.81,0,0,1-3.6,0,1.66,1.66,0,0,1,1.13-1.54V24.17l9.63-7.48.13,0V11.12A1.63,1.63,0,0,1,100,9.7a1.75,1.75,0,0,1,3.5,0Z"/><path id="nine" class="cls-1" d="M111,5.84a1.73,1.73,0,0,1-.91,1.5V28.89l-9.78,8.26a1.58,1.58,0,0,1,0,.38,1.83,1.83,0,1,1-1.83-1.73,2.12,2.12,0,0,1,.57.08l9.23-7.73V7.38a1.72,1.72,0,0,1-1-1.54,1.84,1.84,0,0,1,3.67,0Z"/><path id="eight" class="cls-1" d="M151.11,56.83a1.83,1.83,0,0,1-1.94,1.71,2,2,0,0,1-1.72-.92h-28l-5.2-3.82v-44a1.72,1.72,0,0,1-.88-1.48,1.83,1.83,0,0,1,3.66,0,1.69,1.69,0,0,1-.84,1.45V53l4,3h27.35a2,2,0,0,1,1.69-.88A1.83,1.83,0,0,1,151.11,56.83Z"/><path id="seven" class="cls-1" d="M130.21,21.51a1.84,1.84,0,0,1-3.67,0,1.73,1.73,0,0,1,1.08-1.58V14.69L125.81,13a1.84,1.84,0,0,1-.47.06,1.73,1.73,0,1,1,1.83-1.73,1.44,1.44,0,0,1,0,.41l2.32,2V20.1A1.71,1.71,0,0,1,130.21,21.51Z"/><path id="six" class="cls-1" d="M141.84,12A1.71,1.71,0,0,1,141,13.5V27.06l-5.26,5.21a1.37,1.37,0,0,1,0,.4A1.83,1.83,0,1,1,134,30.94a2,2,0,0,1,.61.1l4.66-4.61V13.6a1.71,1.71,0,0,1-1-1.56,1.83,1.83,0,0,1,3.66,0Z"/><path id="five" class="cls-1" d="M151.72,30.27a1.83,1.83,0,0,1-3.66,0,1.68,1.68,0,0,1,.27-.91l-3.73-3.79V17.21a1.71,1.71,0,0,1-.94-1.5,1.84,1.84,0,0,1,3.67,0,1.74,1.74,0,0,1-1,1.52V24.8L150,28.54A1.78,1.78,0,0,1,151.72,30.27Z"/><path id="four" class="cls-1" d="M160.28,33.28a1.84,1.84,0,0,1-3.67,0,1.71,1.71,0,0,1,.94-1.51V29.21L152.77,26a1.85,1.85,0,0,1-.88.22,1.73,1.73,0,1,1,1.83-1.73v.15l5.66,3.76v3.38A1.71,1.71,0,0,1,160.28,33.28Z"/><path id="three" class="cls-1" d="M153.72,42a1.78,1.78,0,0,1-1.83,1.72,1.88,1.88,0,0,1-1.55-.8H134.78l-6.11-6.52V27.23l0,0,4-4.51V9.76a1.71,1.71,0,0,1-.59-1.28,1.83,1.83,0,0,1,3.66,0,1.74,1.74,0,0,1-1.24,1.64V23l-4.17,4.76.1,7.87,5,5.46h14.88a1.83,1.83,0,0,1,1.55-.81A1.78,1.78,0,0,1,153.72,42Z"/><path id="two" class="cls-1" d="M156.86,45.83A1.78,1.78,0,0,1,155,47.56h-.25l-3.33,1.68H132.72L129.5,46.4h-.05a1.73,1.73,0,1,1,1.83-1.73,1.57,1.57,0,0,1-.21.8l2.36,2.09h17.5l2.35-1.21a1.82,1.82,0,0,1-.08-.52,1.83,1.83,0,0,1,3.66,0Z"/><polygon id="one" class="cls-1" points="157.98 40.87 156.4 41.58 153.51 37.02 136.2 37.02 136.2 35.27 154.53 35.27 157.98 40.87"/></g><text class="cls-2" transform="translate(0 105.47) scale(1.25 1)">GO<tspan class="cls-3" x="51.07" y="0">CRE</tspan><tspan class="cls-4" x="115.97" y="0">A</tspan><tspan class="cls-5" x="134.6" y="0">TE</tspan></text></g></g></svg>