<svg xmlns="http://www.w3.org/2000/svg" viewBox="0 0 404.76 254.45"><defs><style>.cls-1{fill:#005473;}.cls-1,.cls-2{fill-rule:evenodd;}.cls-2{fill:#add136;}</style></defs><title>Asset 1</title><g id="Layer_2" data-name="Layer 2"><g id="Layer_1-2" data-name="Layer 1"><path class="cls-1" d="M277.35,86.21h0a3.23,3.23,0,0,0-3.23,3.23,3.34,3.34,0,0,0,.12.84l-4.76,2.61H237.56l-4.51-4.51a3.1,3.1,0,0,0,.23-1.18,3.23,3.23,0,1,0-3.23,3.23,2.66,2.66,0,0,0,.28,0l5.84,5.85h34.17l6.59-3.62a3,3,0,0,0,.42,0,3.23,3.23,0,1,0,0-6.46Zm-126-49.65,19.45-20.77V6.41l9.54-2.83a4,4,0,1,1,1.08,3.18l-7.26,2.15v8.21L154.72,37.88V74.26h-3.35V36.56ZM184.62,83h0a3.42,3.42,0,1,0-3.42-3.41,3.3,3.3,0,0,0,.48,1.7l-6.56,8.08H140.05a3.23,3.23,0,1,0,0,3.35h36.67l7.9-9.72ZM195,89.54h0l1.33-19.31A3.4,3.4,0,1,0,193,70l-1.24,18-9.45,9.54H156a3.22,3.22,0,1,0-.23,3.35h27.92L195,89.54Zm-27.23,16.35h0a3.23,3.23,0,1,0,0,3.35h20.37l11.78,12.82v18h3.36V120.75l-13.67-14.86ZM216,99V53.53L209.65,46V19.84L216.47,12a3.59,3.59,0,0,1-.33-1.46,3.42,3.42,0,1,1,3.42,3.42c-.11,0-.21,0-.32,0L213,21.09V44.73l6.36,7.58V97.94l2.67,3.72h36.49a3.24,3.24,0,1,1,1.09,3.36h-39.3L216,99ZM226,23h0a3.46,3.46,0,0,0,.14-.91,3.49,3.49,0,1,0-2.51,3.28l3,3V38.91a3.42,3.42,0,1,0,3.36,0V27l-4-4ZM242.54,69h0v3.36h32l5.14,8.89,2.9-1.68L276.43,69ZM125,28.67h0a3.4,3.4,0,0,0,3.23-4.49l4.62-5.11H142l6.73-9.21a3.43,3.43,0,1,0-3.19-1.32l-5.24,7.17H131.4l-5.61,6.21a3.2,3.2,0,0,0-.75-.09,3.42,3.42,0,0,0,0,6.84Zm-13.8,20.12h0a3.42,3.42,0,1,0-5.09,3V71.57a3.42,3.42,0,1,0,3.35,0V51.76a3.4,3.4,0,0,0,1.74-3Zm27,34.76h0a3.42,3.42,0,1,0-.72-6.76l-9.2-15.13V38.32L142.91,34l14.43-16.1a3.47,3.47,0,0,0,.73.09,3.42,3.42,0,1,0-3.42-3.42,3.34,3.34,0,0,0,.2,1.09l-13.8,15.39L125,35.8V62.6l10,16.51a3.12,3.12,0,0,0-.18,1,3.42,3.42,0,0,0,3.42,3.42Zm7.27-37.4a3.41,3.41,0,0,1-1.75,3V60.58a3.42,3.42,0,1,1-3.35,0V49.11a3.41,3.41,0,1,1,5.1-3Zm35.8-12.37h0V21.66a3.42,3.42,0,1,0-3.35.26V32.2L159.81,47.14V79.27a3.42,3.42,0,1,0,3.36.33V48.73l18.14-14.95Zm10.25-19.52h0V54.75L174.77,69.86a3.5,3.5,0,0,0-1.08-.19,3.42,3.42,0,1,0,3.42,3.42,3.5,3.5,0,0,0-.08-.74l17.89-16.1v-42a3.42,3.42,0,1,0-3.36,0ZM181.05,45.41h0a4,4,0,0,0,0,.49l-10.32,9.68a3.38,3.38,0,0,0-4.44,3.25,3.43,3.43,0,0,0,6.85,0,3.6,3.6,0,0,0-.11-.81l10.08-9.45a3.61,3.61,0,0,0,1.32.26,3.42,3.42,0,1,0-3.42-3.42Zm55.25-1.59V18.94a3.37,3.37,0,0,1-1.19-2.57,3.42,3.42,0,1,1,4.54,3.22V45.06L232,54V69.26l9.4,11h27.17a3.42,3.42,0,1,1,0,3.35H239.83L228.62,70.5V52.8l7.68-9ZM248.08,26.4h0V51.61l-8.69,9a3.08,3.08,0,0,0-.86-.12A3.42,3.42,0,1,0,242,63.89a3.12,3.12,0,0,0-.16-1l9.64-10V26.4a3.42,3.42,0,1,0-3.35,0Zm9.78,7.2h0v16l6.91,7.45a3.42,3.42,0,1,0,3.15-1.53l-6.7-7.24V33.6a3.42,3.42,0,1,0-3.36,0ZM271.47,51h0a3.37,3.37,0,0,0,1.46-.34l8.84,6.21v5a3.42,3.42,0,1,0,3.35,0v-6.7l-10.26-7.22c0-.11,0-.22,0-.33A3.42,3.42,0,1,0,271.47,51ZM126.64,85.57a3.25,3.25,0,1,1-3,2l-7-9.78V41.63a3.43,3.43,0,1,1,3.36,0V76.67l6.33,8.93a1.46,1.46,0,0,1,.22,0Zm128.09,30.81h0a3.22,3.22,0,0,0-2.75,1.56H221.7l-6.23,4.74a4,4,0,0,0-1.83-.46,4,4,0,1,0,4,4,3.68,3.68,0,0,0-.11-.89l5.31-4H252a3.23,3.23,0,1,0,2.75-4.91ZM266,107.65a3.23,3.23,0,1,1-2.74,4.9H212L202.3,105V19.17a3.43,3.43,0,1,1,3.36,0v84.15l7.51,5.88H263.3a3.21,3.21,0,0,1,2.74-1.55Z"/><path class="cls-2" d="M143,172.51a18,18,0,0,0-13.32,5.63,19.64,19.64,0,0,0,0,27.3A18,18,0,0,0,143,211.07a17.79,17.79,0,0,0,15.21-7.94,4.45,4.45,0,0,1,3.12-1.89,3.85,3.85,0,0,1,.86-.1,4.43,4.43,0,0,1,2.68.91,4.52,4.52,0,0,1,1.94,3.13,3.87,3.87,0,0,1,.1.87,4.29,4.29,0,0,1-.93,2.66q-8.53,11.92-23,11.93a27.13,27.13,0,0,1-20.08-8.44,28.5,28.5,0,0,1-6.71-10.51,30.79,30.79,0,0,0,0-19.77,28.33,28.33,0,0,1,6.71-10.53A27,27,0,0,1,143,162.88q14.44,0,23,11.94a4.53,4.53,0,0,1,.93,2.71,3.87,3.87,0,0,1-.1.87,4.69,4.69,0,0,1-1.94,3.13,4.43,4.43,0,0,1-2.68.91,5.47,5.47,0,0,1-.86-.09,4.44,4.44,0,0,1-3.12-2A17.83,17.83,0,0,0,143,172.51Zm251.57,14.54a19.48,19.48,0,0,0-37.73,0Zm-18.84,33.59a28.2,28.2,0,0,1-20.57-8.44,29,29,0,0,1-6.2-9.12,28.72,28.72,0,0,1,6.2-31.69,29.24,29.24,0,0,1,9.27-6.2,29,29,0,0,1,31.84,6.2,29,29,0,0,1,8.49,20.47,4.8,4.8,0,0,1-4.8,4.82H356.84a18.87,18.87,0,0,0,6.87,10.3,19.11,19.11,0,0,0,12,4.09c7.12,0,12.59-2.17,16.45-6.51a4.46,4.46,0,0,1,3.27-1.59,4.77,4.77,0,0,1,3.48,1.19,4.62,4.62,0,0,1,1.59,3.32,4.53,4.53,0,0,1-1.23,3.43q-8.6,9.72-23.56,9.73ZM345.2,162.88h-7.48V148.15a4.55,4.55,0,0,0-1.38-3.39,4.83,4.83,0,0,0-8.2,3.39v14.73h-7.41a4.77,4.77,0,0,0-3.44,1.43,4.82,4.82,0,0,0,3.44,8.2h7.41v43.38a4.49,4.49,0,0,0,1.45,3.37,4.76,4.76,0,0,0,8.13-3.37V172.51h7.48a4.44,4.44,0,0,0,3.37-1.43,4.79,4.79,0,0,0,0-6.77,4.52,4.52,0,0,0-3.37-1.43Zm-35.06,0a4.55,4.55,0,0,1,3.37,1.43,4.62,4.62,0,0,1,1.38,3.39v48.19a4.79,4.79,0,0,1-9.57,0v-2.52a28,28,0,0,1-38.86-1.17,29.11,29.11,0,0,1,0-40.81,27.92,27.92,0,0,1,38.86-1.24V167.7a4.62,4.62,0,0,1,1.43-3.39,4.58,4.58,0,0,1,3.39-1.43Zm-23.61,48.19a18,18,0,0,0,13.32-5.63,19.77,19.77,0,0,0,0-27.3,18.57,18.57,0,0,0-26.64,0,19.64,19.64,0,0,0,0,27.3,18,18,0,0,0,13.32,5.63Zm-39.92-24a19.48,19.48,0,0,0-37.73,0Zm-18.84,33.59a28.2,28.2,0,0,1-20.57-8.44,28.91,28.91,0,0,1-6.21-9.12,28.27,28.27,0,0,1-2.3-11.22,27.85,27.85,0,0,1,8.51-20.47,29.08,29.08,0,0,1,9.26-6.2,28.36,28.36,0,0,1,11.31-2.31,28,28,0,0,1,20.53,8.51,29,29,0,0,1,8.5,20.47,4.8,4.8,0,0,1-4.81,4.82H208.88a18.91,18.91,0,0,0,6.86,10.3,19.14,19.14,0,0,0,12,4.09q10.66,0,16.44-6.51a4.46,4.46,0,0,1,3.27-1.59,4.77,4.77,0,0,1,3.48,1.19,4.77,4.77,0,0,1,.37,6.75q-8.6,9.72-23.56,9.73Zm-31.85-57.76A24.48,24.48,0,0,0,179,169.59V167.7a4.62,4.62,0,0,0-1.38-3.39,4.68,4.68,0,0,0-3.37-1.43,4.8,4.8,0,0,0-4.83,4.82v48.19a4.66,4.66,0,0,0,1.38,3.37,4.77,4.77,0,0,0,3.45,1.38,4.67,4.67,0,0,0,3.37-1.38,4.54,4.54,0,0,0,1.38-3.37V191.82a20.13,20.13,0,0,1,5-13.68,15.44,15.44,0,0,1,12-5.63,4.88,4.88,0,0,0,4.81-4.81,4.88,4.88,0,0,0-4.81-4.82Z"/><path class="cls-1" d="M28.42,208a18.68,18.68,0,0,1-13.3-5.21,16.86,16.86,0,0,1,0-25,18.7,18.7,0,0,1,13.3-5.23,18.52,18.52,0,0,1,13.26,5.23,16.86,16.86,0,0,1,0,25A18.51,18.51,0,0,1,28.42,208Zm58.37-45.11a27.1,27.1,0,0,1,20.08,8.51,29.13,29.13,0,0,1,0,40.81,28.08,28.08,0,0,1-40.14,0,29.11,29.11,0,0,1,0-40.81,27,27,0,0,1,20.06-8.51Zm0,48.19a18,18,0,0,0,13.32-5.63,19.64,19.64,0,0,0,0-27.3,18.56,18.56,0,0,0-26.63,0,19.61,19.61,0,0,0,0,27.3,17.94,17.94,0,0,0,13.31,5.63ZM52,163a4.66,4.66,0,0,0-3.38,1.38,4.77,4.77,0,0,0-1.38,3.44v2.05A28.16,28.16,0,0,0,28.42,163a28.89,28.89,0,0,0-11,2.15A27.86,27.86,0,0,0,2.25,179.68a26.09,26.09,0,0,0,0,21.2,27.1,27.1,0,0,0,6.1,8.7,27.28,27.28,0,0,0,9,5.84,29.08,29.08,0,0,0,11.05,2.15,28.24,28.24,0,0,0,18.8-6.85v.71a18.74,18.74,0,0,1-5.54,13.62,17.73,17.73,0,0,1-13.26,5.68,28.08,28.08,0,0,1-16.83-5.23A4.72,4.72,0,0,0,8,224.63a4.61,4.61,0,0,0-3.07,2,4.66,4.66,0,0,0-.88,3.58A5,5,0,0,0,6,233.3a37.79,37.79,0,0,0,22.43,7,27.42,27.42,0,0,0,11-2.25,27.27,27.27,0,0,0,9-6.1,29.49,29.49,0,0,0,6.15-9.1,28.08,28.08,0,0,0,2.29-11.12V167.81A4.71,4.71,0,0,0,52,163Z"/><path class="cls-1" d="M127.23,254.29c.63,0,.74-.09.83-.4l.84-2.94h3.91l.87,2.94c.09.31.21.4.85.4s.71-.11.71-.35a1.65,1.65,0,0,0-.09-.47l-2.87-9.67c-.18-.6-.38-.65-1.41-.65s-1.21,0-1.4.65l-2.88,9.67a1.65,1.65,0,0,0-.09.47c0,.26.15.35.73.35Zm3.53-9.84H131l1.5,5.31h-3.26l1.52-5.31Zm25,9.84c.6,0,.75-.09.75-.49v-4.73h3.31c.38,0,.47-.11.47-.67s-.09-.65-.47-.65h-3.31V244.5h4.33c.34,0,.45-.12.45-.68s-.11-.67-.45-.67h-5.28c-.43,0-.54.09-.54.45v10.2c0,.4.15.49.74.49Zm25.94,0c.6,0,.75-.09.75-.49v-4.24h1.65c.23,0,.45,0,.65,0l1.83,4.37c.12.31.25.38,1,.38.52,0,.65-.13.65-.33a1.29,1.29,0,0,0-.15-.45l-1.95-4.19c1.32-.41,1.85-1.39,1.85-3.22,0-2.68-1-3-3.63-3a21.62,21.62,0,0,0-2.82.16.53.53,0,0,0-.53.58v10c0,.4.15.49.74.49Zm.75-9.86c.45,0,1.12-.09,1.74-.09,1.81,0,2.19.33,2.19,1.81,0,1.82-.47,2.25-2.25,2.25h-1.68v-4ZM209,254.29c.6,0,.74-.09.74-.49V243.62c0-.38-.14-.47-.74-.47s-.74.09-.74.47V253.8c0,.4.14.49.74.49Zm24.8.16a10.1,10.1,0,0,0,2.48-.34c.29-.09.44-.18.44-.73s-.08-.6-.29-.6a11.16,11.16,0,0,1-2.31.33c-1.93,0-2.59-.22-2.59-3.91v-.91c0-3.64.55-3.91,2.59-3.91a12.2,12.2,0,0,1,2.31.32c.2,0,.29-.1.29-.59s-.15-.64-.44-.71a8.84,8.84,0,0,0-2.45-.34c-2.4,0-3.8.36-3.8,5.07v1.38c0,4.65,1.47,4.94,3.77,4.94Zm22.86-.16c.63,0,.74-.09.83-.4l.84-2.94h3.91l.87,2.94c.09.31.22.4.85.4s.71-.11.71-.35a1.65,1.65,0,0,0-.09-.47l-2.87-9.67c-.18-.6-.38-.65-1.41-.65s-1.21,0-1.39.65L256,253.47a1.65,1.65,0,0,0-.09.47c0,.26.15.35.73.35Zm3.53-9.84h.24l1.5,5.31h-3.26Z"/></g></g></svg>