<svg xmlns="http://www.w3.org/2000/svg" viewBox="0 0 182.46 140.03"><defs><style>.cls-1{fill:#fff;fill-rule:evenodd;}</style></defs><title>Asset 4</title><g id="Layer_2" data-name="Layer 2"><g id="Layer_1-2" data-name="Layer 1"><path class="cls-1" d="M173,86.21h0a3.23,3.23,0,0,0-3.23,3.23,3.34,3.34,0,0,0,.12.84l-4.77,2.61H133.16l-4.51-4.51a3.3,3.3,0,0,0,.22-1.18,3.23,3.23,0,1,0-3.23,3.23,2.4,2.4,0,0,0,.28,0l5.84,5.85h34.17l6.6-3.62a2.72,2.72,0,0,0,.42,0,3.23,3.23,0,1,0,0-6.46ZM47,36.56,66.42,15.79V6.41L76,3.58A4,4,0,1,1,79.9,8,4,4,0,0,1,77,6.76L69.78,8.91v8.21L50.31,37.88V74.26H47V36.56ZM80.21,83h0a3.45,3.45,0,1,0-3-1.71l-6.56,8.08H35.65a3.23,3.23,0,1,0,0,3.35H72.31L80.21,83Zm10.36,6.54h0L91.9,70.23A3.4,3.4,0,1,0,88.56,70l-1.25,18L77.86,97.6H51.57a3.22,3.22,0,1,0-.23,3.35H79.26L90.57,89.54ZM63.35,105.89h0a3.23,3.23,0,1,0-2.76,4.9,3.2,3.2,0,0,0,2.75-1.55H83.72l11.77,12.82v18h3.36V120.75L85.19,105.89ZM111.59,99V53.53L105.24,46V19.84L112.07,12a3.41,3.41,0,1,1,3.08,2,2.91,2.91,0,0,1-.31,0l-6.25,7.21V44.73L115,52.31V97.94l2.68,3.72h36.49A3.23,3.23,0,1,1,155.2,105H115.9l-4.31-6Zm10-76.06h0a3.09,3.09,0,0,0,.14-.91,3.42,3.42,0,1,0-3.41,3.42,3.32,3.32,0,0,0,.9-.14l3,3V38.91a3.43,3.43,0,1,0,3.35,0V27l-4-4ZM138.13,69h0v3.36h32l5.13,8.89,2.91-1.68L172,69ZM20.63,28.67h0a3.37,3.37,0,0,0,3.23-4.49l4.62-5.11h9.09L44.3,9.86a3.43,3.43,0,1,0-3.19-1.32l-5.24,7.17H27l-5.61,6.21a3.08,3.08,0,0,0-.75-.09,3.42,3.42,0,1,0,0,6.84ZM6.83,48.79h0a3.42,3.42,0,1,0-5.09,3V71.57a3.41,3.41,0,1,0,3.36,0V51.76a3.41,3.41,0,0,0,1.73-3Zm27,34.76h0a3.42,3.42,0,0,0,0-6.84,3.38,3.38,0,0,0-.72.08l-9.2-15.13V38.32L38.51,34l14.42-16.1a3.56,3.56,0,0,0,.73.09,3.42,3.42,0,1,0-3.41-3.42,3.33,3.33,0,0,0,.19,1.09L36.65,31.09,20.55,35.8V62.6l10,16.51a3.35,3.35,0,0,0,3.24,4.44Zm7.27-37.4a3.42,3.42,0,0,1-1.74,3V60.58a3.42,3.42,0,1,1-3.36,0V49.11a3.41,3.41,0,1,1,5.1-3ZM76.9,33.78h0V21.66a3.41,3.41,0,1,0-3.35.26V32.2L55.4,47.14V79.27a3.42,3.42,0,1,0,3.36.33V48.73L76.9,33.78ZM87.16,14.26h0V54.75L70.36,69.86a3.5,3.5,0,0,0-1.08-.19,3.42,3.42,0,1,0,3.43,3.42,3.49,3.49,0,0,0-.09-.74l17.89-16.1v-42a3.42,3.42,0,1,0-3.35,0ZM76.64,45.41h0a2.72,2.72,0,0,0,0,.49L66.36,55.58a3.34,3.34,0,0,0-1-.17,3.42,3.42,0,1,0,3.42,3.42,3.1,3.1,0,0,0-.11-.81l10.09-9.45a3.56,3.56,0,0,0,1.31.26,3.42,3.42,0,1,0-3.42-3.42Zm55.25-1.59V18.94a3.41,3.41,0,1,1,3.36.65V45.06l-7.68,9V69.26l9.41,11h27.16a3.42,3.42,0,1,1,0,3.35H135.43L124.22,70.5V52.8l7.67-9ZM143.67,26.4h0V51.61l-8.69,9a3.06,3.06,0,0,0-.85-.12,3.46,3.46,0,1,0,3.26,2.45L147,53V26.4a3.41,3.41,0,1,0-3.35,0Zm9.78,7.2h0v16l6.91,7.45a3.42,3.42,0,1,0,3.15-1.53l-6.7-7.24V33.6a3.42,3.42,0,1,0-3.36,0ZM167.06,51h0a3.45,3.45,0,0,0,1.47-.34l8.83,6.21v5a3.42,3.42,0,1,0,3.36,0v-6.7l-10.27-7.22c0-.11,0-.22,0-.33A3.42,3.42,0,1,0,167.06,51ZM22.23,85.57a3.25,3.25,0,1,1-3,2l-6.94-9.78V41.63a3.41,3.41,0,1,1,5.09-3,3.37,3.37,0,0,1-1.74,3V76.67L22,85.6a1.52,1.52,0,0,1,.21,0Zm128.09,30.81h0a3.22,3.22,0,0,0-2.75,1.56H117.29l-6.23,4.74a4,4,0,1,0-1.83,7.53,4,4,0,0,0,4-4,4.26,4.26,0,0,0-.1-.89l5.3-4h29.15a3.23,3.23,0,1,0,2.75-4.91Zm11.31-8.73a3.23,3.23,0,1,1-2.74,4.9H107.6L97.9,105V19.17a3.42,3.42,0,1,1,3.36,0v84.15l7.5,5.88h50.13a3.21,3.21,0,0,1,2.74-1.55Z"/></g></g></svg>